<svg width="30" height="26" viewBox="0 0 30 26" fill="none" xmlns="http://www.w3.org/2000/svg">
<g clip-path="url(#clip0_35_2)">
<path d="M30 3.07786C28.8715 3.60291 27.678 3.95187 26.4562 4.11401C27.7438 3.2991 28.7065 2.0087 29.1617 0.487314C27.9564 1.24982 26.6378 1.78684 25.2628 2.07517C24.4195 1.11411 23.3246 0.445904 22.1206 0.157429C20.9165 -0.131045 19.6589 -0.0264413 18.5114 0.45764C17.3638 0.941721 16.3793 1.78289 15.6858 2.87177C14.9924 3.96065 14.6222 5.24688 14.6232 6.56322C14.6185 7.06553 14.6663 7.56683 14.7658 8.05783C12.319 7.92987 9.92515 7.25254 7.74064 6.0701C5.55613 4.88767 3.63017 3.22676 2.08868 1.19595C1.29727 2.6391 1.05201 4.35001 1.40298 5.97948C1.75395 7.60895 2.67468 9.03412 3.97724 9.9641C3.00411 9.93605 2.05155 9.65891 1.19984 9.15604V9.22752C1.20144 10.7425 1.6923 12.2106 2.58979 13.3848C3.48728 14.5589 4.73659 15.3674 6.12745 15.6742C5.60127 15.8221 5.05899 15.8948 4.51486 15.8902C4.12415 15.8976 3.73383 15.86 3.35066 15.7781C3.74816 17.0801 4.51423 18.2187 5.54343 19.0371C6.57263 19.8555 7.81435 20.3135 9.09766 20.348C6.92066 22.164 4.23581 23.1492 1.47216 23.1462C0.980135 23.1497 0.488408 23.1195 0 23.0559C2.81226 24.9889 6.0893 26.0115 9.43486 25.9999C20.7522 25.9999 26.9399 16 26.9399 7.33197C26.9399 7.04182 26.9305 6.76207 26.9174 6.48394C28.1305 5.55791 29.1751 4.40367 30 3.07786Z" fill="#03A9F4"/>
</g>
<defs>
<clipPath id="clip0_35_2">
<rect width="30" height="26" fill="white"/>
</clipPath>
</defs>
</svg>
